<?xml version="1.0" standalone="no"?>
<!DOCTYPE svg PUBLIC "-//W3C//DTD SVG 20010904//EN"
 "http://www.w3.org/TR/2001/REC-SVG-20010904/DTD/svg10.dtd">
<svg version="1.0" xmlns="http://www.w3.org/2000/svg"
 width="25.000000pt" height="25.000000pt" viewBox="0 0 25.000000 25.000000"
 preserveAspectRatio="xMidYMid meet">

<g transform="translate(0.000000,25.000000) scale(0.100000,-0.100000)"
fill="#0065A4" stroke="none">
<path  d="M4 236 c-12 -31 0 -51 31 -51 27 0 30 3 30 30 0 25 -4 30 -28 33 -17
2 -29 -2 -33 -12z m56 -21 c0 -20 -5 -25 -25 -25 -20 0 -25 5 -25 25 0 20 5
25 25 25 20 0 25 -5 25 -25z"/>
<path d="M94 236 c-12 -31 0 -51 31 -51 27 0 30 3 30 30 0 25 -4 30 -28 33
-17 2 -29 -2 -33 -12z m56 -21 c0 -20 -5 -25 -25 -25 -20 0 -25 5 -25 25 0 20
5 25 25 25 20 0 25 -5 25 -25z"/>
<path d="M184 236 c-12 -31 0 -51 31 -51 27 0 30 3 30 30 0 25 -4 30 -28 33
-17 2 -29 -2 -33 -12z m56 -21 c0 -20 -5 -25 -25 -25 -20 0 -25 5 -25 25 0 20
5 25 25 25 20 0 25 -5 25 -25z"/>
<path d="M4 146 c-12 -31 0 -51 31 -51 27 0 30 3 30 30 0 25 -4 30 -28 33 -17
2 -29 -2 -33 -12z m56 -21 c0 -20 -5 -25 -25 -25 -20 0 -25 5 -25 25 0 20 5
25 25 25 20 0 25 -5 25 -25z"/>
<path d="M94 146 c-12 -31 0 -51 31 -51 27 0 30 3 30 30 0 25 -4 30 -28 33
-17 2 -29 -2 -33 -12z m56 -21 c0 -20 -5 -25 -25 -25 -20 0 -25 5 -25 25 0 20
5 25 25 25 20 0 25 -5 25 -25z"/>
<path d="M184 146 c-12 -31 0 -51 31 -51 27 0 30 3 30 30 0 25 -4 30 -28 33
-17 2 -29 -2 -33 -12z m56 -21 c0 -20 -5 -25 -25 -25 -20 0 -25 5 -25 25 0 20
5 25 25 25 20 0 25 -5 25 -25z"/>
<path d="M4 56 c-12 -31 0 -51 31 -51 27 0 30 3 30 30 0 25 -4 30 -28 33 -17
2 -29 -2 -33 -12z m56 -21 c0 -20 -5 -25 -25 -25 -20 0 -25 5 -25 25 0 20 5
25 25 25 20 0 25 -5 25 -25z"/>
<path d="M94 56 c-12 -31 0 -51 31 -51 27 0 30 3 30 30 0 25 -4 30 -28 33 -17
2 -29 -2 -33 -12z m56 -21 c0 -20 -5 -25 -25 -25 -20 0 -25 5 -25 25 0 20 5
25 25 25 20 0 25 -5 25 -25z"/>
<path d="M184 56 c-12 -31 0 -51 31 -51 27 0 30 3 30 30 0 25 -4 30 -28 33
-17 2 -29 -2 -33 -12z m56 -21 c0 -20 -5 -25 -25 -25 -20 0 -25 5 -25 25 0 20
5 25 25 25 20 0 25 -5 25 -25z"/>
</g>
</svg>
